<?xml version="1.0" standalone="no"?>
<!DOCTYPE svg PUBLIC "-//W3C//DTD SVG 20010904//EN"
 "http://www.w3.org/TR/2001/REC-SVG-20010904/DTD/svg10.dtd">
<svg version="1.0" xmlns="http://www.w3.org/2000/svg"
 width="951.000000pt" height="951.000000pt" viewBox="0 0 951.000000 951.000000"
 preserveAspectRatio="xMidYMid meet">
<metadata>
Created by potrace 1.11, written by Peter Selinger 2001-2013
</metadata>
<g transform="translate(0.000000,951.000000) scale(0.100000,-0.100000)"
fill="#000000" stroke="none">
<path d="M4395 9074 c-266 -20 -694 -86 -965 -148 -364 -84 -875 -246 -936
-297 -21 -17 -37 -146 -31 -258 11 -232 138 -508 273 -589 24 -15 43 -29 44
-32 0 -3 -29 -45 -65 -95 -216 -302 -306 -595 -283 -920 14 -191 13 -227 -7
-265 -27 -53 -67 -95 -205 -215 -425 -368 -464 -408 -495 -495 -20 -56 -19
-123 2 -167 9 -19 54 -66 100 -105 121 -102 140 -149 105 -265 -30 -102 -33
-138 -15 -193 l15 -48 -36 -36 c-85 -85 -90 -158 -22 -304 27 -58 46 -113 46
-133 0 -21 -17 -70 -41 -120 -72 -149 -99 -244 -99 -351 0 -196 74 -311 255
-398 99 -47 171 -65 365 -90 99 -12 166 -26 194 -39 27 -13 79 -61 141 -129
83 -91 105 -123 147 -212 128 -270 159 -330 199 -381 23 -30 46 -59 51 -65 6
-8 -5 -20 -34 -36 -341 -195 -553 -389 -835 -763 -131 -175 -268 -431 -348
-650 -98 -270 -201 -673 -245 -960 -22 -140 -21 -157 9 -205 5 -8 15 -36 23
-63 l12 -47 3504 0 3503 0 -7 23 c-16 52 -189 438 -226 507 -95 175 -273 420
-482 662 -227 265 -582 750 -771 1054 -192 309 -289 421 -514 597 -219 172
-279 234 -335 346 -53 104 -124 304 -156 441 -29 121 -62 196 -105 240 l-35
36 138 185 c642 865 1009 1680 1108 2464 23 180 22 509 0 680 -45 336 -167
656 -344 904 -121 171 -334 375 -517 498 -259 173 -622 313 -990 382 -246 46
-329 53 -690 56 -192 1 -372 1 -400 -1z m-1466 -984 l69 -115 -51 -52 c-28
-29 -54 -50 -58 -45 -17 16 -59 215 -59 275 0 64 9 90 23 65 4 -7 38 -65 76
-128z m179 -277 c99 -134 232 -251 367 -323 111 -59 179 -83 319 -111 76 -15
140 -29 141 -31 2 -2 -4 -37 -12 -78 -9 -46 -13 -105 -10 -153 5 -72 9 -85 55
-160 111 -184 135 -224 159 -259 31 -46 63 -147 63 -199 0 -60 -54 -300 -98
-434 -58 -178 -86 -290 -78 -319 5 -21 12 -26 37 -26 17 0 32 6 35 14 6 15 35
6 116 -35 10 -5 32 -9 48 -9 17 0 48 -11 68 -25 48 -33 143 -35 201 -5 85 43
184 239 259 513 38 137 49 167 64 167 11 0 23 -13 32 -35 12 -29 20 -35 45
-35 24 0 48 -18 121 -87 51 -49 103 -95 116 -104 24 -15 23 -16 -49 -43 -93
-37 -204 -101 -218 -128 -15 -28 3 -66 34 -73 18 -5 48 6 108 39 225 121 405
136 507 42 161 -145 23 -546 -286 -838 -129 -122 -311 -233 -447 -274 -89 -27
-206 -24 -274 6 -49 22 -56 22 -80 9 -53 -30 -33 -85 44 -120 261 -116 702 93
1005 477 29 38 70 100 99 153 l29 54 9 -59 c4 -32 7 -102 6 -154 -1 -78 -7
-111 -33 -185 -40 -112 -58 -143 -177 -302 -156 -210 -183 -277 -183 -461 0
-111 3 -133 29 -211 60 -177 140 -285 281 -379 104 -70 248 -145 261 -136 5 3
9 3 9 -1 0 -3 -46 -39 -102 -80 -264 -192 -357 -265 -495 -388 -492 -437 -622
-544 -910 -746 -81 -57 -192 -136 -246 -175 -192 -139 -233 -168 -285 -203
-29 -19 -55 -33 -58 -31 -2 3 -20 41 -38 84 -19 44 -59 135 -91 204 -31 69
-78 175 -104 236 -70 163 -115 238 -195 323 -127 135 -136 145 -171 202 -20
31 -46 82 -60 113 -24 55 -24 56 -5 56 27 0 41 39 33 95 -10 76 -55 86 -78 17
l-10 -30 -37 72 -36 72 28 -4 c36 -5 43 9 35 69 -9 62 -34 80 -66 48 -17 -17
-20 -28 -14 -57 l6 -37 -30 35 c-17 19 -28 40 -26 47 2 7 0 35 -4 62 l-8 51
56 2 c60 1 89 1 109 -1 6 0 12 -14 12 -29 0 -43 22 -66 53 -58 24 6 27 11 27
46 0 36 2 40 26 40 19 0 25 -4 20 -15 -11 -29 6 -76 31 -88 33 -15 48 3 48 56
l0 42 90 3 c50 1 114 7 144 12 88 16 91 15 91 -28 0 -49 19 -75 51 -70 22 3
24 8 27 69 l3 66 72 28 c40 15 97 40 127 54 l55 27 1 -53 c0 -28 6 -59 14 -67
16 -20 56 -21 64 -1 9 24 -5 108 -21 127 -13 14 -12 17 1 25 28 16 148 137
177 179 64 93 138 266 154 362 6 36 3 45 -19 67 -20 19 -32 24 -49 19 -32 -9
-38 -17 -48 -65 -30 -137 -102 -278 -194 -376 -51 -56 -84 -80 -152 -115 -246
-125 -352 -143 -806 -132 l-319 7 -9 24 c-12 33 -62 29 -67 -5 -3 -22 -6 -23
-110 -22 -131 1 -270 23 -377 57 -60 20 -75 28 -60 33 22 8 32 50 27 117 -4
42 -19 57 -47 47 -19 -8 -26 -33 -28 -98 l-1 -54 -43 35 c-92 75 -126 223 -84
362 12 39 42 114 66 166 78 166 79 217 3 354 -63 114 -56 177 26 220 20 11 29
10 62 -12 45 -28 207 -97 245 -104 30 -6 52 16 47 48 -2 19 -23 32 -113 69
-153 63 -189 86 -204 129 -24 68 -25 90 -5 98 11 3 46 30 79 58 33 28 72 59
88 68 33 21 36 54 5 66 -26 10 -58 -4 -106 -44 -16 -14 -33 -25 -36 -25 -3 0
-6 27 -6 60 0 33 -7 76 -15 96 l-14 35 26 -21 c17 -13 39 -20 62 -19 20 1 62
-8 94 -20 78 -29 124 -17 189 49 49 48 60 84 36 108 -22 22 -50 12 -92 -33
-63 -68 -116 -60 -217 33 -46 42 -63 52 -93 52 -41 0 -62 -27 -51 -67 5 -22
-2 -18 -56 29 -124 106 -125 108 -89 184 28 57 114 139 437 415 168 143 212
190 251 264 23 44 26 62 26 145 0 52 -4 144 -9 204 l-8 108 49 -48 c82 -81
269 -177 457 -234 82 -25 110 -20 105 18 -2 20 -15 33 -46 51 -24 13 -69 48
-100 78 -46 45 -60 54 -84 51 -20 -3 -34 2 -50 19 -12 13 -29 23 -39 23 -10 0
-29 11 -43 25 -14 14 -36 25 -50 25 -14 0 -33 10 -43 23 -27 34 -40 39 -64 26
-18 -9 -24 -8 -31 5 -5 9 -19 16 -32 16 -22 0 -23 1 -14 63 22 146 129 398
237 554 49 72 254 313 265 313 2 0 26 -30 54 -67z m898 -190 c19 -3 34 -8 34
-12 0 -18 -47 -111 -56 -111 -18 0 -127 113 -152 157 l-23 42 81 -35 c45 -20
97 -38 116 -41z m-1216 -4104 c0 -18 -2 -20 -15 -9 -13 11 -13 15 -3 21 18 12
18 12 18 -12z m480 -949 c0 -19 -56 -67 -100 -86 -25 -10 -56 -26 -69 -36 -13
-10 -28 -18 -32 -18 -37 0 -364 -299 -441 -402 -15 -20 -34 -43 -42 -51 -8 -8
-46 -59 -85 -113 -39 -55 -75 -103 -79 -109 -27 -34 -134 -218 -192 -329 -218
-421 -336 -798 -370 -1185 -8 -94 -26 -121 -81 -121 -25 0 -29 3 -24 23 2 12
11 62 19 112 8 50 22 135 31 190 30 181 136 575 210 781 76 209 239 515 343
641 26 32 79 99 117 148 85 111 203 234 315 328 47 40 91 78 98 85 19 17 260
175 297 194 29 15 31 14 58 -13 15 -16 27 -34 27 -39z"/>
<path d="M2742 6628 c-18 -18 -15 -45 9 -69 20 -20 20 -20 0 -52 -10 -18 -24
-52 -31 -76 -33 -124 87 -151 142 -32 l22 49 43 -35 c24 -20 43 -38 43 -42 0
-3 -53 -21 -118 -40 -153 -45 -154 -45 -150 -84 3 -28 7 -32 35 -35 32 -3 328
81 351 100 6 6 12 25 12 43 0 29 -10 41 -82 102 -217 182 -247 200 -276 171z"/>
<path d="M4143 5678 c-29 -38 -19 -108 16 -108 32 0 45 30 42 98 -1 16 -7 22
-25 22 -13 0 -28 -6 -33 -12z"/>
<path d="M4873 5570 c-21 -8 -23 -16 -23 -79 0 -79 -6 -88 -79 -125 -71 -37
-103 -76 -109 -134 -4 -44 -2 -51 24 -72 28 -21 34 -22 129 -15 129 10 169 10
226 1 42 -8 48 -6 59 13 18 35 -9 66 -71 81 -49 12 -75 11 -222 -6 -50 -6 -57
-5 -51 9 3 9 34 32 68 51 34 19 69 43 77 53 64 72 41 250 -28 223z"/>
<path d="M4240 5551 c-15 -28 -12 -77 5 -91 38 -31 77 26 56 83 -12 32 -45 36
-61 8z"/>
<path d="M4012 5532 c-19 -13 -33 -71 -21 -93 12 -23 42 -25 59 -4 17 21 17
84 0 96 -18 11 -22 11 -38 1z"/>
<path d="M4110 5505 c-11 -28 -5 -51 16 -59 34 -13 62 23 49 64 -9 30 -53 27
-65 -5z"/>
<path d="M4121 5377 c-13 -33 -3 -65 21 -72 30 -10 49 13 46 54 -3 31 -7 36
-30 39 -22 3 -30 -2 -37 -21z"/>
<path d="M3910 5370 c-30 -30 -25 -94 9 -98 31 -5 39 5 47 55 5 35 3 43 -15
52 -17 9 -24 8 -41 -9z"/>
<path d="M4293 5343 c-21 -84 8 -140 52 -97 11 12 15 31 13 68 -3 47 -5 51
-30 54 -23 3 -29 -2 -35 -25z"/>
<path d="M3770 5326 c-13 -35 3 -76 29 -76 25 0 43 32 39 68 -2 21 -9 28 -30
30 -22 3 -30 -2 -38 -22z"/>
<path d="M4062 5258 c-10 -13 -16 -55 -14 -95 2 -26 37 -40 57 -23 21 18 20
116 -1 124 -23 9 -30 8 -42 -6z"/>
<path d="M3659 5217 c-17 -37 1 -81 34 -85 21 -3 28 2 32 21 4 14 5 38 3 53
-2 23 -9 30 -30 32 -22 3 -30 -2 -39 -21z"/>
<path d="M2173 5202 c-103 -69 -143 -131 -93 -147 20 -6 60 10 60 25 0 5 29
28 65 52 55 36 65 47 63 68 -4 36 -43 37 -95 2z"/>
<path d="M4187 5207 c-25 -20 -28 -56 -6 -78 34 -34 77 8 58 57 -9 27 -33 36
-52 21z"/>
<path d="M3915 5186 c-9 -14 -15 -39 -13 -58 2 -27 8 -34 29 -36 21 -2 29 3
38 26 7 17 11 43 9 58 -4 39 -40 45 -63 10z"/>
<path d="M3793 5152 c-29 -18 -27 -94 2 -106 26 -9 43 4 49 40 11 53 -16 88
-51 66z"/>
<path d="M2216 5099 c-43 -51 -29 -89 27 -75 28 7 63 66 54 90 -10 27 -53 19
-81 -15z"/>
<path d="M3566 5114 c-12 -31 -6 -82 10 -88 37 -14 64 26 56 82 -3 17 -10 22
-32 22 -16 0 -30 -7 -34 -16z"/>
<path d="M4279 5103 c-9 -24 -5 -93 6 -93 2 0 10 -3 18 -6 23 -9 47 24 47 65
0 62 -51 86 -71 34z"/>
<path d="M3973 5080 c-27 -11 -43 -87 -22 -101 26 -16 49 -9 59 17 22 58 5 99
-37 84z"/>
<path d="M4082 5078 c-15 -15 -16 -50 0 -66 18 -18 55 -15 60 6 12 49 -29 91
-60 60z"/>
<path d="M3390 5060 c-6 -11 -10 -38 -8 -58 3 -34 6 -37 33 -37 26 0 31 5 39
38 11 44 0 70 -32 75 -13 2 -25 -5 -32 -18z"/>
<path d="M2312 5054 c-19 -13 -52 -63 -52 -78 0 -8 31 -36 40 -36 15 0 80 74
80 91 0 17 -19 39 -35 39 -6 0 -21 -7 -33 -16z"/>
<path d="M4169 5008 c-14 -31 4 -78 30 -78 27 0 43 24 39 62 -2 28 -7 34 -30
36 -21 3 -30 -2 -39 -20z"/>
<path d="M3683 5012 c-16 -10 -26 -56 -18 -82 5 -16 13 -20 33 -18 22 2 29 10
36 40 13 51 -14 83 -51 60z"/>
<path d="M3123 5003 c-18 -7 -27 -67 -14 -92 16 -29 49 -27 61 5 14 36 12 60
-6 78 -16 17 -21 18 -41 9z"/>
<path d="M4019 4956 c-16 -35 0 -90 27 -94 31 -4 46 21 42 70 -3 39 -6 43 -30
46 -22 3 -30 -2 -39 -22z"/>
<path d="M2406 4951 c-10 -11 -16 -30 -14 -43 2 -18 9 -23 31 -23 32 0 64 41
54 69 -9 22 -50 20 -71 -3z"/>
<path d="M3826 4958 c-27 -86 -5 -144 44 -118 20 11 31 73 19 108 -9 24 -57
32 -63 10z"/>
<path d="M2923 4913 c-16 -6 -27 -65 -19 -98 9 -34 61 -36 70 -2 12 45 7 86
-13 97 -11 5 -21 10 -23 9 -2 0 -8 -3 -15 -6z"/>
<path d="M3490 4891 c-15 -29 -12 -87 5 -101 25 -21 49 -7 58 33 13 54 2 87
-28 87 -14 0 -29 -8 -35 -19z"/>
<path d="M2504 4866 c-10 -26 4 -48 28 -44 17 2 23 10 23 28 0 18 -6 26 -23
28 -13 2 -25 -3 -28 -12z"/>
<path d="M3233 4833 c-12 -51 -6 -81 18 -88 28 -9 45 9 53 54 8 53 0 71 -34
71 -24 0 -29 -5 -37 -37z"/>
<path d="M4167 4863 c-14 -13 -7 -92 9 -107 20 -20 29 -20 49 0 12 13 15 26 9
58 -3 22 -8 44 -11 49 -5 9 -47 9 -56 0z"/>
<path d="M3716 4838 c-20 -29 -20 -62 0 -82 32 -33 64 -11 64 44 0 58 -35 79
-64 38z"/>
<path d="M3995 4806 c-3 -9 -7 -23 -10 -31 -8 -25 13 -65 34 -65 28 0 43 24
39 67 -3 33 -7 38 -31 41 -18 2 -29 -2 -32 -12z"/>
<path d="M3056 4768 c-29 -41 -15 -88 26 -88 33 0 52 72 26 98 -18 18 -35 15
-52 -10z"/>
<path d="M3611 4758 c-11 -29 -7 -96 7 -110 6 -6 22 -8 36 -4 24 6 26 11 26
59 0 29 -5 58 -12 65 -19 19 -48 14 -57 -10z"/>
<path d="M3372 4761 c-15 -9 -29 -52 -25 -73 6 -23 42 -33 58 -17 14 15 18 31
16 65 -1 22 -30 37 -49 25z"/>
<path d="M2709 4733 c-17 -43 -1 -78 36 -78 29 0 30 1 30 50 0 47 -2 50 -27
53 -23 3 -30 -2 -39 -25z"/>
<path d="M3852 4728 c-29 -29 -4 -84 35 -76 28 5 26 82 -2 86 -11 1 -26 -3
-33 -10z"/>
<path d="M3495 4706 c-13 -9 -19 -26 -19 -50 0 -45 15 -61 48 -52 23 6 26 12
26 49 0 38 -13 67 -30 67 -3 0 -15 -6 -25 -14z"/>
<path d="M2870 4690 c-9 -6 -14 -27 -15 -62 0 -51 1 -53 27 -56 22 -3 30 2 38
23 14 38 12 71 -6 89 -18 18 -24 19 -44 6z"/>
<path d="M2520 4650 c-17 -64 -10 -94 22 -98 23 -3 30 2 38 24 6 15 10 46 8
68 -3 36 -6 41 -30 44 -24 3 -28 -1 -38 -38z"/>
<path d="M4154 4662 c-11 -11 -14 -26 -10 -50 6 -39 21 -53 51 -50 23 3 29 26
21 73 -8 38 -38 52 -62 27z"/>
<path d="M3989 4633 c-22 -5 -30 -38 -18 -70 7 -19 15 -24 37 -21 23 3 27 8
30 40 3 39 -16 58 -49 51z"/>
<path d="M3730 4590 c-6 -11 -10 -42 -8 -68 3 -45 4 -47 33 -47 l30 0 0 65 c0
59 -2 65 -22 68 -14 2 -26 -4 -33 -18z"/>
<path d="M3210 4561 c-14 -26 -3 -69 20 -81 28 -15 52 14 48 59 -3 31 -7 36
-30 39 -19 2 -30 -3 -38 -17z"/>
<path d="M3029 4523 c-7 -18 -8 -41 -2 -63 7 -30 12 -35 38 -35 l30 0 0 60 c0
58 -1 60 -27 63 -23 3 -30 -2 -39 -25z"/>
<path d="M3488 4539 c-11 -6 -18 -22 -18 -42 0 -43 12 -59 41 -55 20 2 25 10
27 41 3 35 -10 67 -27 67 -3 0 -14 -5 -23 -11z"/>
<path d="M3350 4491 c-15 -28 -12 -77 5 -91 37 -31 76 29 55 85 -11 30 -45 33
-60 6z"/>
<path d="M2595 4469 c-10 -15 -10 -113 -1 -128 11 -17 54 -13 65 7 5 10 6 42
3 72 -6 50 -9 55 -34 58 -14 2 -29 -2 -33 -9z"/>
<path d="M2389 4443 c-7 -18 -8 -41 -2 -63 7 -30 13 -35 41 -38 l32 -3 0 50
c0 65 -7 81 -36 81 -17 0 -28 -8 -35 -27z"/>
<path d="M4127 4463 c-19 -18 -4 -79 23 -93 42 -22 67 29 40 81 -10 18 -50 26
-63 12z"/>
<path d="M3840 4434 c-17 -42 0 -79 36 -79 28 0 29 1 29 50 0 47 -2 50 -27 53
-23 3 -30 -2 -38 -24z"/>
<path d="M3572 4438 c-27 -27 -7 -108 27 -108 30 0 44 26 38 67 -8 49 -38 68
-65 41z"/>
<path d="M2752 4378 c-17 -17 -15 -53 4 -72 31 -31 56 -12 52 40 -2 30 -8 40
-23 42 -11 1 -26 -3 -33 -10z"/>
<path d="M3942 4368 c-15 -15 -15 -40 -1 -72 13 -28 32 -38 53 -30 31 12 21
86 -14 104 -23 12 -24 12 -38 -2z"/>
<path d="M3427 4339 c-17 -10 -24 -64 -9 -85 20 -30 60 -23 63 11 6 62 -18 94
-54 74z"/>
<path d="M3268 4333 c-21 -5 -25 -61 -8 -94 13 -23 43 -25 60 -4 13 15 5 70
-12 93 -11 12 -12 13 -40 5z"/>
<path d="M1995 4321 c-13 -22 -45 -125 -45 -147 0 -25 30 -47 52 -39 16 6 61
146 56 173 -4 19 -52 29 -63 13z"/>
<path d="M2149 4314 c-7 -9 -15 -42 -17 -74 -4 -52 -2 -59 17 -65 12 -4 28 -2
36 5 17 14 30 90 21 125 -7 29 -36 34 -57 9z"/>
<path d="M2904 4312 c-18 -11 -26 -66 -14 -96 8 -22 15 -27 38 -24 25 3 27 7
30 49 4 58 -22 92 -54 71z"/>
<path d="M2289 4269 c-14 -28 -3 -106 18 -118 9 -4 24 -6 34 -4 16 4 19 15 19
62 0 31 -5 62 -12 69 -19 19 -46 14 -59 -9z"/>
<path d="M3121 4271 c-19 -12 -17 -55 3 -86 20 -31 69 -32 74 -2 5 24 -24 83
-44 91 -19 7 -16 8 -33 -3z"/>
<path d="M3711 4258 c-11 -30 -5 -79 11 -90 7 -4 22 -7 33 -6 16 2 21 12 23
46 2 24 -2 50 -9 58 -17 21 -49 17 -58 -8z"/>
<path d="M3559 4213 c-16 -41 1 -78 37 -78 26 0 29 3 32 38 2 21 -2 45 -9 53
-19 23 -48 17 -60 -13z"/>
<path d="M4037 4233 c-12 -11 -8 -78 6 -97 8 -11 23 -17 38 -14 20 2 25 9 27
40 4 48 -12 78 -42 78 -12 0 -26 -3 -29 -7z"/>
<path d="M3887 4203 c-3 -14 0 -39 5 -55 8 -24 15 -29 37 -26 22 3 26 8 29 41
4 44 -11 67 -43 67 -17 0 -24 -7 -28 -27z"/>
<path d="M2477 4213 c-14 -13 -6 -60 12 -77 41 -37 74 -1 52 57 -10 26 -47 38
-64 20z"/>
<path d="M2575 4123 c-24 -23 -20 -115 6 -139 33 -30 54 -8 55 57 0 30 -1 61
-3 70 -5 23 -40 30 -58 12z"/>
<path d="M3300 4115 c-18 -48 22 -103 55 -75 15 13 20 56 9 84 -10 26 -53 20
-64 -9z"/>
<path d="M2056 4122 c-3 -5 -10 -30 -16 -56 -12 -53 -1 -86 29 -86 30 0 42 24
44 87 2 56 1 58 -25 61 -14 2 -29 -1 -32 -6z"/>
<path d="M3782 4108 c-15 -15 -16 -62 -2 -89 6 -11 21 -19 35 -19 30 0 40 31
28 81 -10 36 -38 50 -61 27z"/>
<path d="M3085 4090 c-10 -32 20 -70 55 -70 26 0 30 4 30 28 0 53 -71 87 -85
42z"/>
<path d="M3429 4103 c-23 -5 -28 -33 -15 -74 8 -26 17 -35 38 -37 33 -4 44 24
28 72 -11 36 -24 45 -51 39z"/>
<path d="M1955 4084 c-15 -16 -30 -96 -26 -146 1 -23 40 -34 58 -16 15 15 31
106 25 144 -4 27 -37 37 -57 18z"/>
<path d="M2176 4048 c-7 -13 -12 -34 -11 -48 2 -14 4 -30 4 -37 1 -7 10 -17
22 -23 31 -17 49 4 49 59 0 68 -35 95 -64 49z"/>
<path d="M2325 4046 c-11 -8 -16 -28 -16 -69 -1 -60 12 -87 41 -87 28 0 38 22
35 75 -2 28 -4 57 -4 66 -1 21 -35 30 -56 15z"/>
<path d="M2890 4045 c-14 -17 -2 -64 22 -78 24 -15 48 -1 48 28 0 56 -41 85
-70 50z"/>
<path d="M2410 4035 c-14 -17 -7 -104 11 -137 12 -23 45 -23 58 0 10 19 1 117
-13 140 -10 17 -41 15 -56 -3z"/>
<path d="M2670 4030 c-39 -24 1 -141 43 -124 23 8 28 32 17 78 -11 50 -31 65
-60 46z"/>
<path d="M3893 4032 c-18 -11 -26 -74 -13 -106 8 -22 15 -27 38 -24 25 3 27 6
30 56 4 69 -18 98 -55 74z"/>
<path d="M3646 4014 c-16 -43 29 -99 60 -73 17 14 19 60 2 77 -17 17 -55 15
-62 -4z"/>
<path d="M3207 3993 c-11 -11 -8 -66 6 -93 8 -17 21 -25 37 -25 22 0 25 5 28
42 2 23 -2 51 -8 63 -10 19 -49 28 -63 13z"/>
<path d="M3077 3963 c-13 -12 -7 -72 9 -87 47 -47 86 29 42 81 -11 14 -40 17
-51 6z"/>
<path d="M3500 3870 c0 -23 7 -33 29 -45 37 -19 61 -10 61 22 0 31 -25 52 -62
53 -24 0 -28 -4 -28 -30z"/>
<path d="M3727 3894 c-11 -11 -8 -73 3 -95 6 -10 20 -19 31 -19 49 0 47 112
-2 118 -14 2 -28 0 -32 -4z"/>
<path d="M2522 3878 c-13 -13 -15 -49 -6 -97 5 -22 14 -33 32 -38 38 -9 52 16
40 75 -15 68 -37 89 -66 60z"/>
<path d="M3320 3851 c0 -38 36 -83 64 -79 27 4 32 37 11 77 -12 24 -22 31 -45
31 -26 0 -30 -4 -30 -29z"/>
<path d="M2210 3845 c-16 -20 -8 -114 11 -126 8 -5 23 -8 34 -7 18 3 20 10 19
66 -1 43 -6 67 -15 73 -20 13 -35 11 -49 -6z"/>
<path d="M2660 3841 c-14 -27 9 -95 33 -99 32 -6 49 18 42 57 -4 20 -11 42
-17 49 -16 18 -46 15 -58 -7z"/>
<path d="M2811 3842 c-15 -29 17 -87 48 -87 36 0 45 24 27 68 -13 28 -22 37
-41 37 -13 0 -29 -8 -34 -18z"/>
<path d="M2387 3809 c-12 -7 -17 -23 -17 -55 0 -54 14 -84 39 -84 32 0 43 24
35 79 -7 56 -27 76 -57 60z"/>
<path d="M3181 3788 c-18 -50 30 -107 65 -77 17 14 13 61 -7 86 -18 20 -49 16
-58 -9z"/>
<path d="M3431 3781 c-15 -28 21 -71 59 -71 16 0 32 5 35 11 12 19 -4 55 -30
67 -36 17 -53 15 -64 -7z"/>
<path d="M3006 3775 c-10 -27 -7 -34 18 -50 34 -23 68 -5 64 33 -3 23 -8 27
-39 30 -26 2 -38 -1 -43 -13z"/>
<path d="M3731 3581 c-28 -51 0 -135 42 -129 20 3 22 9 22 73 0 69 -1 70 -27
73 -18 2 -30 -3 -37 -17z"/>
<path d="M3466 3504 c-20 -19 -20 -54 -2 -99 29 -69 82 -33 70 47 -10 67 -35
86 -68 52z"/>
<path d="M3302 3483 c-26 -49 19 -124 61 -102 16 9 19 18 14 56 -3 25 -11 49
-18 54 -22 14 -48 10 -57 -8z"/>
<path d="M3840 3400 c-11 -7 -14 -24 -13 -60 3 -67 17 -92 51 -88 26 3 27 4
24 67 -3 82 -22 107 -62 81z"/>
<path d="M3132 3378 c-17 -17 -15 -103 2 -118 8 -6 25 -10 38 -8 19 2 24 10
26 44 5 74 -30 118 -66 82z"/>
<path d="M3633 3383 c-35 -14 -20 -146 17 -158 33 -10 40 3 40 74 0 80 -15
102 -57 84z"/>
<path d="M3733 3382 c-18 -11 -25 -55 -14 -86 9 -22 16 -27 39 -24 24 3 27 7
30 46 4 58 -20 86 -55 64z"/>
<path d="M3424 3342 c-19 -13 -23 -41 -12 -72 8 -26 15 -31 37 -28 22 3 26 8
29 41 4 53 -22 81 -54 59z"/>
<path d="M3294 3275 c-10 -26 4 -89 23 -102 42 -32 68 6 49 72 -10 33 -17 41
-39 43 -18 2 -29 -2 -33 -13z"/>
<path d="M3492 3218 c-15 -15 -16 -57 -2 -93 8 -21 16 -26 38 -23 23 3 27 8
30 39 6 69 -31 112 -66 77z"/>
<path d="M3200 3165 c-11 -30 -3 -80 16 -96 7 -6 22 -8 34 -4 16 5 20 15 20
54 0 26 -5 52 -12 59 -20 20 -48 14 -58 -13z"/>
<path d="M3734 3182 c-35 -22 -22 -122 15 -122 41 0 59 100 22 120 -23 12 -23
12 -37 2z"/>
</g>
</svg>
